<?xml version="1.0" encoding="utf-8"?>
<!-- Generator: Adobe Illustrator 16.0.0, SVG Export Plug-In . SVG Version: 6.00 Build 0)  -->
<!DOCTYPE svg PUBLIC "-//W3C//DTD SVG 1.1//EN" "http://www.w3.org/Graphics/SVG/1.1/DTD/svg11.dtd">
<svg version="1.1" id="Layer_1" xmlns="http://www.w3.org/2000/svg" xmlns:xlink="http://www.w3.org/1999/xlink" x="0px" y="0px"
	 width="260px" height="39.243px" viewBox="0 0 260 39.243" enable-background="new 0 0 260 39.243" xml:space="preserve">
<g enable-background="new    ">
	<path fill="#010101" d="M9.881,27.738c0.439,0,0.872-0.062,1.297-0.181c0.428-0.118,0.809-0.295,1.142-0.533
		c0.336-0.232,0.606-0.523,0.806-0.866c0.203-0.342,0.303-0.737,0.303-1.186c0-0.541-0.14-1.021-0.417-1.438
		c-0.278-0.419-0.645-0.808-1.097-1.159c-0.453-0.357-0.969-0.688-1.554-0.999c-0.582-0.306-1.177-0.616-1.78-0.93
		c-0.606-0.312-1.197-0.641-1.781-0.983c-0.587-0.341-1.103-0.721-1.556-1.139c-0.45-0.421-0.816-0.89-1.095-1.409
		c-0.279-0.519-0.416-1.117-0.416-1.793c0-0.677,0.126-1.304,0.377-1.884c0.256-0.58,0.625-1.078,1.117-1.501
		c0.489-0.423,1.092-0.755,1.805-0.996c0.714-0.242,1.537-0.362,2.467-0.362c1.673,0,2.992,0.351,3.962,1.055
		c0.966,0.7,1.666,1.713,2.096,3.041l-1.521,0.697c-0.175-0.54-0.403-1.034-0.679-1.482c-0.271-0.449-0.602-0.835-0.989-1.156
		c-0.383-0.317-0.825-0.567-1.322-0.74c-0.499-0.173-1.062-0.259-1.687-0.259c-0.558,0-1.046,0.078-1.463,0.234
		c-0.421,0.156-0.767,0.358-1.043,0.607c-0.275,0.251-0.479,0.533-0.621,0.851c-0.141,0.315-0.207,0.64-0.207,0.968
		c0,0.465,0.142,0.893,0.432,1.275c0.284,0.385,0.661,0.75,1.126,1.097c0.465,0.349,0.998,0.679,1.598,0.997
		c0.6,0.317,1.208,0.638,1.83,0.969c0.621,0.33,1.231,0.671,1.834,1.026c0.601,0.354,1.134,0.744,1.599,1.166
		c0.462,0.423,0.838,0.887,1.126,1.389c0.287,0.503,0.434,1.063,0.434,1.679c0,0.703-0.132,1.36-0.401,1.973
		c-0.268,0.612-0.667,1.148-1.198,1.611c-0.53,0.46-1.192,0.824-1.983,1.091c-0.788,0.265-1.709,0.399-2.76,0.399
		c-0.843,0-1.602-0.093-2.269-0.28c-0.666-0.186-1.258-0.458-1.767-0.812c-0.512-0.354-0.949-0.791-1.313-1.308
		c-0.364-0.515-0.662-1.096-0.901-1.747l1.602-0.658c0.183,0.574,0.432,1.09,0.744,1.545c0.313,0.457,0.681,0.842,1.097,1.16
		c0.419,0.317,0.883,0.557,1.395,0.725C8.765,27.654,9.303,27.738,9.881,27.738"/>
	<path fill="#010101" d="M22.327,19.673c0,1.24,0.183,2.353,0.556,3.332c0.371,0.982,0.883,1.812,1.533,2.493
		c0.65,0.682,1.422,1.198,2.314,1.56c0.892,0.357,1.859,0.539,2.897,0.539c0.617,0,1.214-0.12,1.786-0.364
		c0.575-0.239,1.108-0.552,1.606-0.935c0.494-0.383,0.937-0.82,1.326-1.308c0.385-0.486,0.708-0.978,0.963-1.478l1.241,0.8
		c-0.364,0.592-0.792,1.162-1.287,1.712c-0.497,0.548-1.066,1.033-1.72,1.452c-0.65,0.418-1.385,0.753-2.206,1.008
		c-0.819,0.253-1.736,0.381-2.75,0.381c-0.973,0-1.889-0.112-2.752-0.337c-0.865-0.224-1.653-0.536-2.376-0.938
		c-0.725-0.402-1.369-0.885-1.941-1.451c-0.57-0.567-1.054-1.189-1.445-1.87c-0.391-0.681-0.694-1.411-0.906-2.188
		c-0.212-0.778-0.318-1.581-0.318-2.408c0-0.829,0.108-1.634,0.326-2.416c0.214-0.781,0.523-1.518,0.927-2.205
		c0.399-0.689,0.891-1.322,1.474-1.897c0.584-0.573,1.24-1.066,1.973-1.476c0.73-0.411,1.531-0.729,2.403-0.959
		c0.869-0.227,1.799-0.342,2.789-0.342c0.936,0,1.801,0.129,2.59,0.382c0.791,0.252,1.513,0.588,2.167,1.008
		c0.657,0.419,1.236,0.905,1.746,1.451c0.509,0.549,0.941,1.118,1.305,1.711l-1.28,0.864c-0.746-1.429-1.574-2.477-2.487-3.147
		c-0.911-0.666-1.961-1.001-3.142-1.001c-1.023,0-1.979,0.188-2.867,0.559c-0.887,0.375-1.661,0.904-2.321,1.598
		c-0.66,0.693-1.178,1.532-1.558,2.522C22.513,17.314,22.327,18.429,22.327,19.673"/>
	<path fill="#010101" d="M42.907,22.551l-2.79,5.896h-1.482l8.508-18.068h0.735l8.316,18.068h-3.018l-2.701-5.896H42.907z
		 M43.429,21.408h6.504l-3.209-6.984L43.429,21.408z"/>
	<path fill="#010101" d="M58.739,10.785h6.108c1.063,0,1.998,0.114,2.794,0.343c0.8,0.228,1.468,0.547,1.998,0.956
		c0.535,0.411,0.934,0.898,1.206,1.458c0.272,0.563,0.404,1.18,0.404,1.846c0,0.551-0.105,1.062-0.307,1.539
		c-0.212,0.48-0.503,0.909-0.885,1.294c-0.382,0.386-0.839,0.72-1.37,1c-0.532,0.288-1.118,0.504-1.762,0.655l6.426,8.57h-3.434
		l-6.136-8.305h-2.079v8.305h-2.965V10.785z M61.704,19.253h1.712c0.663,0,1.28-0.09,1.844-0.266
		c0.563-0.179,1.048-0.428,1.464-0.754c0.414-0.326,0.736-0.72,0.97-1.186c0.231-0.466,0.348-0.985,0.348-1.56
		c0-0.527-0.091-1.007-0.276-1.453c-0.188-0.442-0.446-0.824-0.777-1.141c-0.328-0.316-0.722-0.563-1.177-0.742
		c-0.457-0.177-0.958-0.264-1.499-0.264h-2.609V19.253z"/>
	<polygon fill="#010101" points="75.833,10.785 78.799,10.785 78.799,27.304 87.688,27.304 87.688,28.447 75.833,28.447 	"/>
	<polygon fill="#010101" points="102.693,10.785 102.693,11.925 93.386,11.925 93.386,18.238 99.61,18.238 99.61,19.382 
		93.386,19.382 93.386,27.304 102.693,27.304 102.693,28.447 90.418,28.447 90.418,10.785 	"/>
	<polygon fill="#010101" points="120.296,10.785 120.296,11.925 113.908,11.925 113.908,28.447 110.941,28.447 110.941,11.925 
		104.538,11.925 104.538,10.785 	"/>
	<polygon fill="#010101" points="137.327,10.785 137.327,11.925 130.939,11.925 130.939,28.447 127.971,28.447 127.971,11.925 
		121.571,11.925 121.571,10.785 	"/>
	<path fill="#010101" d="M185.989,27.734c0.438,0,0.871-0.059,1.3-0.177c0.428-0.118,0.807-0.294,1.139-0.533
		c0.335-0.236,0.604-0.522,0.807-0.866c0.203-0.342,0.305-0.736,0.305-1.187c0-0.54-0.143-1.021-0.42-1.437
		c-0.277-0.421-0.645-0.809-1.098-1.163c-0.452-0.354-0.969-0.686-1.552-0.995c-0.584-0.309-1.176-0.618-1.784-0.931
		c-0.602-0.313-1.198-0.643-1.777-0.982c-0.584-0.342-1.101-0.723-1.554-1.143c-0.453-0.418-0.816-0.887-1.098-1.406
		c-0.281-0.519-0.419-1.118-0.419-1.794c0-0.678,0.128-1.305,0.381-1.883c0.251-0.58,0.625-1.08,1.117-1.501
		c0.489-0.425,1.092-0.757,1.805-0.995c0.718-0.243,1.536-0.363,2.467-0.363c1.671,0,2.995,0.351,3.957,1.053
		c0.971,0.7,1.671,1.715,2.102,3.043l-1.521,0.695c-0.177-0.537-0.404-1.033-0.68-1.482c-0.272-0.448-0.605-0.832-0.988-1.154
		c-0.383-0.321-0.825-0.567-1.321-0.741c-0.501-0.173-1.062-0.258-1.688-0.258c-0.557,0-1.046,0.076-1.467,0.234
		c-0.414,0.156-0.763,0.357-1.035,0.607c-0.277,0.249-0.484,0.533-0.621,0.849c-0.139,0.317-0.208,0.64-0.208,0.971
		c0,0.464,0.142,0.891,0.43,1.275c0.283,0.384,0.665,0.749,1.127,1.096c0.463,0.345,0.997,0.68,1.597,0.996
		c0.598,0.314,1.212,0.639,1.831,0.967c0.623,0.331,1.229,0.674,1.833,1.029c0.6,0.354,1.132,0.744,1.599,1.166
		c0.466,0.424,0.837,0.886,1.127,1.389c0.288,0.503,0.43,1.063,0.43,1.68c0,0.702-0.132,1.359-0.397,1.972
		c-0.267,0.612-0.666,1.148-1.198,1.61c-0.532,0.46-1.198,0.824-1.985,1.09c-0.792,0.267-1.708,0.4-2.755,0.4
		c-0.852,0-1.605-0.094-2.27-0.279c-0.671-0.188-1.259-0.458-1.772-0.812c-0.511-0.354-0.947-0.792-1.309-1.308
		c-0.366-0.515-0.662-1.097-0.901-1.748l1.595-0.66c0.187,0.577,0.438,1.091,0.75,1.547c0.312,0.458,0.676,0.843,1.098,1.161
		c0.418,0.317,0.881,0.558,1.394,0.722C184.87,27.653,185.415,27.734,185.989,27.734"/>
	<path fill="#010101" d="M204.696,28.865c-0.916,0-1.788-0.113-2.625-0.337c-0.836-0.222-1.614-0.54-2.334-0.942
		c-0.719-0.407-1.375-0.896-1.964-1.466c-0.595-0.571-1.093-1.202-1.507-1.896c-0.415-0.693-0.737-1.438-0.966-2.231
		c-0.226-0.796-0.344-1.622-0.344-2.486c0-0.845,0.118-1.656,0.344-2.434c0.229-0.776,0.551-1.505,0.966-2.181
		c0.414-0.676,0.912-1.29,1.507-1.844c0.589-0.554,1.246-1.029,1.964-1.426c0.72-0.399,1.498-0.704,2.334-0.921
		c0.837-0.217,1.709-0.323,2.625-0.323c0.911,0,1.79,0.106,2.622,0.323c0.836,0.217,1.616,0.521,2.333,0.921
		c0.716,0.396,1.374,0.872,1.966,1.426c0.593,0.554,1.093,1.168,1.511,1.844c0.411,0.676,0.73,1.404,0.958,2.181
		c0.229,0.777,0.342,1.589,0.342,2.434c0,0.854-0.113,1.68-0.342,2.479c-0.229,0.801-0.548,1.545-0.958,2.238
		c-0.418,0.693-0.917,1.324-1.511,1.896c-0.593,0.569-1.25,1.059-1.966,1.466c-0.718,0.402-1.497,0.721-2.333,0.942
		C206.486,28.751,205.607,28.865,204.696,28.865 M204.696,27.975c1.002,0,1.899-0.209,2.676-0.633
		c0.777-0.422,1.427-1.011,1.958-1.762c0.526-0.753,0.928-1.646,1.203-2.682c0.276-1.034,0.411-2.167,0.411-3.393
		c0-1.208-0.135-2.317-0.411-3.327c-0.275-1.01-0.677-1.881-1.203-2.611c-0.531-0.73-1.181-1.3-1.958-1.705
		c-0.777-0.406-1.673-0.608-2.676-0.608c-1.033,0-1.94,0.202-2.722,0.608c-0.78,0.405-1.434,0.975-1.959,1.705
		c-0.523,0.73-0.916,1.602-1.183,2.611s-0.4,2.119-0.4,3.327c0,1.226,0.133,2.358,0.4,3.393c0.267,1.036,0.659,1.929,1.183,2.682
		c0.525,0.751,1.179,1.34,1.959,1.762C202.756,27.766,203.663,27.975,204.696,27.975"/>
	<polygon fill="#010101" points="221.337,19.976 221.337,28.447 218.371,28.447 218.371,10.785 221.337,10.785 221.337,18.833 
		230.21,18.833 230.21,10.785 233.177,10.785 233.177,28.447 230.21,28.447 230.21,19.976 	"/>
	<path fill="#010101" d="M246.854,28.865c-0.916,0-1.791-0.113-2.628-0.337c-0.836-0.222-1.614-0.54-2.334-0.942
		c-0.718-0.407-1.37-0.896-1.961-1.466c-0.595-0.571-1.098-1.202-1.509-1.896c-0.418-0.693-0.739-1.438-0.967-2.231
		c-0.228-0.796-0.345-1.622-0.345-2.486c0-0.845,0.118-1.656,0.345-2.434c0.229-0.776,0.549-1.505,0.967-2.181
		c0.411-0.676,0.914-1.29,1.509-1.844c0.591-0.554,1.243-1.029,1.961-1.426c0.72-0.399,1.498-0.704,2.334-0.921
		c0.837-0.217,1.713-0.323,2.628-0.323c0.909,0,1.783,0.106,2.622,0.323c0.835,0.217,1.612,0.521,2.332,0.921
		c0.718,0.396,1.374,0.872,1.964,1.426c0.595,0.554,1.094,1.168,1.507,1.844c0.417,0.676,0.739,1.404,0.966,2.181
		c0.229,0.777,0.342,1.589,0.342,2.434c0,0.854-0.113,1.68-0.342,2.479c-0.227,0.801-0.549,1.545-0.966,2.238
		c-0.413,0.693-0.912,1.324-1.507,1.896c-0.591,0.569-1.247,1.059-1.964,1.466c-0.72,0.402-1.497,0.721-2.332,0.942
		C248.637,28.751,247.763,28.865,246.854,28.865 M246.854,27.975c1.002,0,1.894-0.209,2.672-0.633
		c0.777-0.422,1.429-1.011,1.958-1.762c0.527-0.753,0.931-1.646,1.207-2.682c0.272-1.034,0.411-2.167,0.411-3.393
		c0-1.208-0.139-2.317-0.411-3.327c-0.276-1.01-0.68-1.881-1.207-2.611c-0.529-0.73-1.181-1.3-1.958-1.705
		c-0.779-0.406-1.67-0.608-2.672-0.608c-1.035,0-1.937,0.202-2.72,0.608c-0.784,0.405-1.438,0.975-1.961,1.705
		c-0.525,0.73-0.919,1.602-1.184,2.611c-0.267,1.01-0.399,2.119-0.399,3.327c0,1.226,0.132,2.358,0.399,3.393
		c0.265,1.036,0.659,1.929,1.184,2.682c0.524,0.751,1.178,1.34,1.961,1.762C244.917,27.766,245.819,27.975,246.854,27.975"/>
	<path fill="#010101" d="M165.863,19.623l-7.44-14.01l-7.434,14.01l7.434,14.007L165.863,19.623z M155.095,24.416l-0.177-0.336
		l-2.318-4.362l-0.05-0.095l0.05-0.094l5.646-10.638l0.177-0.335l0.178,0.335l2.318,4.362l0.05,0.097l-0.05,0.095l-5.646,10.635
		L155.095,24.416z M155.923,25.985l-0.05-0.095l0.05-0.095l5.646-10.637l0.179-0.335l0.177,0.335l2.324,4.369l0.05,0.095
		l-0.05,0.095l-5.648,10.635l-0.178,0.335l-0.177-0.335L155.923,25.985z"/>
</g>
</svg>
